<svg xmlns="http://www.w3.org/2000/svg" viewBox="0 0 1921 1082"><filter id="b"><feGaussianBlur stdDeviation="12" /></filter><path fill="#7a6a58" d="M0 0h1921v1080H0z"/><g filter="url(#b)" transform="translate(3.8 3.8) scale(7.5039)" fill-opacity=".5"><ellipse fill="#fffae9" cx="174" cy="102" rx="47" ry="47"/><ellipse fill="#2b1a15" cx="46" cy="121" rx="80" ry="43"/><ellipse fill="#fff" rx="1" ry="1" transform="matrix(6.87838 -10.3278 25.24593 16.81395 30.6 64.4)"/><ellipse fill="#0f0e0a" rx="1" ry="1" transform="matrix(47.9686 13.93617 -6.5772 22.63886 202.5 0)"/><ellipse fill="#270f00" rx="1" ry="1" transform="matrix(-30.2044 -8.62702 3.7614 -13.16915 98 73.8)"/><path fill="#172a3f" d="M258 159L217 48h54z"/><ellipse fill="#563921" rx="1" ry="1" transform="rotate(-97.4 69 -39) scale(19.79914 59.77549)"/><path fill="#dfb393" d="M129.2 81.5l139 70.8-11.4 22.2-139-70.8z"/></g></svg>