<svg xmlns="http://www.w3.org/2000/svg" width="58.141" height="45.807" viewBox="0 0 58.141 45.807"><path d="M277.832,181.6c0,13.717-9.943,24.918-19.13,32.594l-5.913-4.655s6.92-6.545,8.683-16.109c-5.537-1.385-9.817-5.915-9.817-11.83a13.079,13.079,0,0,1,12.963-13.213A13.212,13.212,0,0,1,277.832,181.6Zm-32.091,0c0,13.717-9.691,24.918-19,32.594l-5.915-4.655a33.539,33.539,0,0,0,8.809-16.109c-5.663-1.385-9.941-5.915-9.941-11.83a13.184,13.184,0,0,1,13.089-13.213A13,13,0,0,1,245.74,181.6Z" transform="translate(-219.69 -168.387)" fill="#fff"/></svg>