<?xml version="1.0" encoding="iso-8859-1"?>
<!-- Generator: Adobe Illustrator 19.0.0, SVG Export Plug-In . SVG Version: 6.00 Build 0)  -->
<svg xmlns="http://www.w3.org/2000/svg" xmlns:xlink="http://www.w3.org/1999/xlink" version="1.1" id="Capa_1" x="0px" y="0px" viewBox="0 0 480 480" style="enable-background:new 0 0 480 480;" xml:space="preserve" width="512px" height="512px">
<g>
	<g>
		<path d="M408,0H72C32.254,0.044,0.044,32.254,0,72v176c0.044,39.746,32.254,71.956,72,72h120v32h24v112h-72v16h192v-16h-72V352h24    v-32h120c39.746-0.044,71.956-32.254,72-72V72C479.956,32.254,447.746,0.044,408,0z M248,464h-16V352h16V464z M272,336h-64v-48h64    V336z M464,248c-0.04,30.911-25.089,55.96-56,56H288v-32h-96v32H72c-30.911-0.04-55.96-25.089-56-56V72    c0.04-30.911,25.089-55.96,56-56h336c30.911,0.04,55.96,25.089,56,56V248z" fill="#FFFFFF"/>
	</g>
</g>
<g>
	<g>
		<path d="M79.16,180.424L68.944,160H72c4.418,0,8-3.582,8-8v-32c0-4.418-3.582-8-8-8H40c-4.418,0-8,3.582-8,8v64    c0,4.418,3.582,8,8,8s8-3.582,8-8v-24h3.056l13.784,27.576c1.975,3.954,6.782,5.559,10.736,3.584    C79.53,189.185,81.135,184.378,79.16,180.424z M64,144H48v-16h16V144z" fill="#FFFFFF"/>
	</g>
</g>
<g>
	<g>
		<path d="M424,112h-16c-4.418,0-8,3.582-8,8v64c0,4.418,3.582,8,8,8h16c13.255,0,24-10.745,24-24v-32    C448,122.745,437.255,112,424,112z M432,168c0,4.418-3.582,8-8,8h-8v-48h8c4.418,0,8,3.582,8,8V168z" fill="#FFFFFF"/>
	</g>
</g>
<g>
	<g>
		<path d="M288,152v-32c0-4.418-3.582-8-8-8h-32c-4.418,0-8,3.582-8,8v64c0,4.418,3.582,8,8,8s8-3.582,8-8v-24h3.056l13.744,27.576    c1.975,3.954,6.782,5.559,10.736,3.584c3.954-1.975,5.559-6.782,3.584-10.736L276.944,160H280C284.418,160,288,156.418,288,152z     M272,144h-16v-16h16V144z" fill="#FFFFFF"/>
	</g>
</g>
<g>
	<g>
		<path d="M120,176h-16v-16h8c4.418,0,8-3.582,8-8s-3.582-8-8-8h-8v-16h16c4.418,0,8-3.582,8-8s-3.582-8-8-8H96    c-4.418,0-8,3.582-8,8v64c0,4.418,3.582,8,8,8h24c4.418,0,8-3.582,8-8S124.418,176,120,176z" fill="#FFFFFF"/>
	</g>
</g>
<g>
	<g>
		<path d="M224,176h-16v-16h8c4.418,0,8-3.582,8-8s-3.582-8-8-8h-8v-16h16c4.418,0,8-3.582,8-8s-3.582-8-8-8h-24    c-4.418,0-8,3.582-8,8v64c0,4.418,3.582,8,8,8h24c4.418,0,8-3.582,8-8S228.418,176,224,176z" fill="#FFFFFF"/>
	</g>
</g>
<g>
	<g>
		<path d="M384,176h-16v-16h8c4.418,0,8-3.582,8-8s-3.582-8-8-8h-8v-16h16c4.418,0,8-3.582,8-8s-3.582-8-8-8h-24    c-4.418,0-8,3.582-8,8v64c0,4.418,3.582,8,8,8h24c4.418,0,8-3.582,8-8S388.418,176,384,176z" fill="#FFFFFF"/>
	</g>
</g>
<g>
	<g>
		<path d="M176,144h-24v-16h24c4.418,0,8-3.582,8-8s-3.582-8-8-8h-32c-4.418,0-8,3.582-8,8v32c0,4.418,3.582,8,8,8h24v16h-24    c-4.418,0-8,3.582-8,8s3.582,8,8,8h32c4.418,0,8-3.582,8-8v-32C184,147.582,180.418,144,176,144z" fill="#FFFFFF"/>
	</g>
</g>
<g>
	<g>
		<path d="M337.936,112.24c-4.286-1.068-8.626,1.539-9.696,5.824L320,151.016l-8.24-32.952c-0.97-4.311-5.25-7.019-9.561-6.049    c-4.311,0.97-7.019,5.25-6.049,9.561c0.027,0.121,0.057,0.241,0.09,0.36l16,64c1.074,4.286,5.419,6.889,9.705,5.815    c2.863-0.717,5.098-2.953,5.815-5.815l16-64C344.828,117.65,342.221,113.31,337.936,112.24z" fill="#FFFFFF"/>
	</g>
</g>
<g>
</g>
<g>
</g>
<g>
</g>
<g>
</g>
<g>
</g>
<g>
</g>
<g>
</g>
<g>
</g>
<g>
</g>
<g>
</g>
<g>
</g>
<g>
</g>
<g>
</g>
<g>
</g>
<g>
</g>
</svg>
